<?xml version="1.0" encoding="UTF-8"?><svg id="Layer_1" xmlns="http://www.w3.org/2000/svg" viewBox="0 0 1287 198"><rect x="95.35" y="79.19" width="20.12" height="72.46" fill="#231f20"/><rect x="65.84" y="54" width="79.55" height="16.3" fill="#231f20"/><polygon points="861.16 54 861.16 70.3 890.67 70.3 890.67 151.66 910.8 151.66 910.8 70.3 940.71 70.3 940.71 54 861.16 54" fill="#231f20"/><path d="m234.21,54v64.32c0,10.69-3.34,19.14-10.03,25.35s-15.82,9.32-27.4,9.32-20.46-3.02-27.17-9.05c-6.71-6.04-10.13-14.33-10.26-24.88V54h20.12v64.46c0,6.4,1.53,11.06,4.6,13.99,3.06,2.93,7.3,4.39,12.71,4.39,11.31,0,17.06-5.95,17.23-17.84V54h20.19Z" fill="#231f20"/><path d="m280.44,54l25.09,70.83,24.95-70.83h26.43v97.66h-20.19v-26.7l2.01-46.08-26.36,72.78h-13.82l-26.29-72.71,2.01,46.01v26.7h-20.12V54h26.29Z" fill="#231f20"/><path d="m528.95,93.57h30.36v-39.57h20.12v97.66h-20.12v-41.86h-30.36v-16.23Zm-8.9,16.23l.02,41.86h-20.12V54h20.12v39.57l-.02,16.23Z" fill="#231f20"/><path d="m621.84,151.66h-20.12V54h20.12v97.66Z" fill="#231f20"/><path d="m723.34,151.66h-20.13l-39.17-64.26v64.26h-20.12V54h20.12l39.24,64.39V54h20.06v97.66Z" fill="#231f20"/><path d="m774.93,112.49l-10.46,11.27v27.9h-20.12V54h20.12v44.27l8.86-12.14,24.88-32.13h24.75l-34.68,43.4,35.69,54.26h-23.95l-25.09-39.17Z" fill="#231f20"/><path d="m968.82,131.54l-6.71,20.12h-21.39l36.35-97.66h18.65l36.55,97.66h-21.4l-6.77-20.12-5.43-16.3-12.28-36.56-12.14,36.56m0,0h15.06l5.43,16.3h-25.92" fill="#231f20"/><path d="m1124.24,151.66h-20.13l-39.17-64.26v64.26h-20.12V54h20.12l39.24,64.39V54h20.06v97.66Z" fill="#231f20"/><path d="m1175.84,112.49l-10.46,11.27v27.9h-20.12V54h20.12v44.27l8.86-12.14,24.88-32.13h24.75l-34.68,43.4,35.69,54.26h-23.95l-25.09-39.17Z" fill="#231f20"/><polygon points="405.49 54 405.49 70.3 435.01 70.3 435.01 151.66 455.13 151.66 455.13 70.3 484.65 70.3 484.65 54 405.49 54" fill="#231f20"/></svg>